<svg xmlns="http://www.w3.org/2000/svg" xmlns:xlink="http://www.w3.org/1999/xlink" width="500" zoomAndPan="magnify" viewBox="0 0 375 374.999991" height="500" preserveAspectRatio="xMidYMid meet" version="1.2"><defs><clipPath id="019bff0b7d"><path d="M 249.304688 182 L 266 182 L 266 183 L 249.304688 183 Z M 249.304688 182 "/></clipPath></defs><g id="38b67e65f4"><path style=" stroke:none;fill-rule:nonzero;fill:#ff3131;fill-opacity:1;" d="M 278.808594 189.945312 L 281.015625 190.542969 L 278.238281 192.152344 L 276.691406 198.117188 C 277.132812 198.371094 277.636719 198.507812 278.148438 198.507812 C 278.644531 198.507812 279.148438 198.378906 279.613281 198.113281 L 290.023438 192.082031 C 291.042969 191.492188 291.609375 190.34375 291.457031 189.171875 C 291.300781 188 290.460938 187.039062 289.320312 186.730469 L 281.773438 184.691406 C 280.84375 185.742188 279.984375 186.855469 279.308594 188.019531 Z M 278.808594 189.945312 "/><path style=" stroke:none;fill-rule:nonzero;fill:#ff3131;fill-opacity:1;" d="M 258.476562 181.792969 L 269.472656 181.792969 L 269.472656 182.078125 L 258.476562 182.078125 Z M 258.476562 181.792969 "/><path style=" stroke:none;fill-rule:nonzero;fill:#ff3131;fill-opacity:1;" d="M 256.183594 183.503906 L 267.179688 183.503906 L 267.179688 183.789062 L 256.183594 183.789062 Z M 256.183594 183.503906 "/><g clip-rule="nonzero" clip-path="url(#019bff0b7d)"><path style=" stroke:none;fill-rule:nonzero;fill:#ff3131;fill-opacity:1;" d="M 249.339844 182.648438 L 265.117188 182.648438 L 265.117188 182.933594 L 249.339844 182.933594 Z M 249.339844 182.648438 "/></g><path style=" stroke:none;fill-rule:nonzero;fill:#ff3131;fill-opacity:1;" d="M 291.203125 175.652344 C 293.554688 177.363281 296.84375 176.839844 298.554688 174.492188 C 300.261719 172.140625 299.742188 168.847656 297.390625 167.140625 C 295.039062 165.433594 291.75 165.953125 290.039062 168.304688 C 288.332031 170.652344 288.851562 173.945312 291.203125 175.652344 Z M 291.203125 175.652344 "/><path style=" stroke:none;fill-rule:nonzero;fill:#ff3131;fill-opacity:1;" d="M 282.746094 175.042969 C 283.152344 174.59375 283.710938 174.316406 284.316406 174.265625 C 284.984375 174.203125 285.652344 174.429688 286.148438 174.878906 L 288.40625 176.929688 C 288.964844 175.65625 288.988281 174.277344 288.191406 173.328125 C 287.660156 172.691406 286.859375 172.179688 285.902344 171.929688 C 285.832031 171.90625 285.761719 171.886719 285.6875 171.871094 L 276.652344 169.957031 C 276.242188 169.871094 275.816406 169.925781 275.4375 170.109375 L 266.769531 174.371094 C 265.84375 174.824219 265.460938 175.945312 265.917969 176.875 C 266.269531 177.589844 267.015625 177.980469 267.761719 177.914062 C 267.984375 177.894531 268.207031 177.832031 268.421875 177.726562 L 276.507812 173.753906 L 279.167969 174.316406 C 276.210938 176.648438 274.382812 178.878906 272.21875 182.726562 C 271.074219 185.175781 271.664062 186.808594 272.722656 187.992188 L 270.347656 197.140625 L 260.300781 202.476562 C 258.875 203.234375 258.332031 205.003906 259.089844 206.429688 C 259.65625 207.5 260.796875 208.074219 261.929688 207.972656 C 262.308594 207.9375 262.6875 207.832031 263.042969 207.640625 L 274.226562 201.699219 C 274.949219 201.316406 275.480469 200.644531 275.683594 199.851562 L 278.808594 187.8125 C 280.398438 185.039062 283.003906 182.542969 285.195312 180.523438 L 282.910156 178.445312 C 281.925781 177.554688 281.851562 176.027344 282.746094 175.042969 Z M 282.746094 175.042969 "/><path style=" stroke:none;fill-rule:nonzero;fill:#ff3131;fill-opacity:1;" d="M 303.511719 179.304688 C 303.1875 178.324219 302.132812 177.789062 301.148438 178.113281 L 292.164062 181.066406 L 285.785156 175.277344 C 285.019531 174.582031 283.839844 174.640625 283.144531 175.40625 C 282.449219 176.171875 282.507812 177.355469 283.273438 178.046875 L 290.457031 184.570312 C 290.847656 184.925781 291.363281 185.09375 291.878906 185.046875 C 292.019531 185.035156 292.160156 185.007812 292.296875 184.960938 L 302.316406 181.667969 C 303.300781 181.34375 303.832031 180.289062 303.511719 179.304688 Z M 303.511719 179.304688 "/><g style="fill:#ff3131;fill-opacity:1;"><g transform="translate(71.124302, 206.249986)"><path style="stroke:none" d="M 13.640625 -37.546875 L 21.765625 -37.546875 L 21.765625 -7.078125 C 21.765625 -1.972656 19.363281 0.578125 14.5625 0.578125 L 7.828125 0.578125 C 3.035156 0.578125 0.640625 -1.972656 0.640625 -7.078125 L 0.640625 -11.78125 L 8.359375 -11.78125 L 8.359375 -6.15625 C 8.359375 -5.84375 8.460938 -5.566406 8.671875 -5.328125 C 8.890625 -5.097656 9.148438 -4.984375 9.453125 -4.984375 L 12.53125 -4.984375 C 12.84375 -4.984375 13.101562 -5.097656 13.3125 -5.328125 C 13.53125 -5.566406 13.640625 -5.84375 13.640625 -6.15625 Z M 13.640625 -37.546875 "/></g></g><g style="fill:#ff3131;fill-opacity:1;"><g transform="translate(94.79629, 206.249986)"><path style="stroke:none" d="M 25.015625 -30.46875 L 25.015625 -7.078125 C 25.015625 -1.972656 22.613281 0.578125 17.8125 0.578125 L 10.09375 0.578125 C 5.300781 0.578125 2.90625 -1.972656 2.90625 -7.078125 L 2.90625 -30.46875 C 2.90625 -35.570312 5.300781 -38.125 10.09375 -38.125 L 17.8125 -38.125 C 22.613281 -38.125 25.015625 -35.570312 25.015625 -30.46875 Z M 16.890625 -6.15625 L 16.890625 -31.453125 C 16.890625 -31.765625 16.78125 -32.035156 16.5625 -32.265625 C 16.351562 -32.492188 16.09375 -32.609375 15.78125 -32.609375 L 12.125 -32.609375 C 11.820312 -32.609375 11.5625 -32.492188 11.34375 -32.265625 C 11.132812 -32.035156 11.03125 -31.765625 11.03125 -31.453125 L 11.03125 -6.15625 C 11.03125 -5.84375 11.132812 -5.566406 11.34375 -5.328125 C 11.5625 -5.097656 11.820312 -4.984375 12.125 -4.984375 L 15.78125 -4.984375 C 16.09375 -4.984375 16.351562 -5.097656 16.5625 -5.328125 C 16.78125 -5.566406 16.890625 -5.84375 16.890625 -6.15625 Z M 16.890625 -6.15625 "/></g></g><g style="fill:#ff3131;fill-opacity:1;"><g transform="translate(122.877767, 206.249986)"><path style="stroke:none" d="M 21.234375 -20.546875 C 23.753906 -19.648438 25.015625 -17.597656 25.015625 -14.390625 L 25.015625 -7.65625 C 25.015625 -2.550781 22.613281 0 17.8125 0 L 2.90625 0 L 2.90625 -37.546875 L 17.34375 -37.546875 C 22.144531 -37.546875 24.546875 -34.992188 24.546875 -29.890625 L 24.546875 -26.46875 C 24.546875 -23.363281 23.441406 -21.390625 21.234375 -20.546875 Z M 15.3125 -32.03125 L 11.03125 -32.03125 L 11.03125 -22 L 15.3125 -22 C 15.625 -22 15.882812 -22.113281 16.09375 -22.34375 C 16.3125 -22.570312 16.421875 -22.84375 16.421875 -23.15625 L 16.421875 -30.875 C 16.421875 -31.1875 16.3125 -31.457031 16.09375 -31.6875 C 15.882812 -31.914062 15.625 -32.03125 15.3125 -32.03125 Z M 16.890625 -6.734375 L 16.890625 -15.140625 C 16.890625 -15.453125 16.78125 -15.722656 16.5625 -15.953125 C 16.351562 -16.191406 16.09375 -16.3125 15.78125 -16.3125 L 11.03125 -16.3125 L 11.03125 -5.578125 L 15.78125 -5.578125 C 16.09375 -5.578125 16.351562 -5.691406 16.5625 -5.921875 C 16.78125 -6.148438 16.890625 -6.421875 16.890625 -6.734375 Z M 16.890625 -6.734375 "/></g></g><g style="fill:#ff3131;fill-opacity:1;"><g transform="translate(150.553104, 206.249986)"><path style="stroke:none" d=""/></g></g><g style="fill:#ff3131;fill-opacity:1;"><g transform="translate(162.273055, 206.249986)"><path style="stroke:none" d="M 11.03125 -14.734375 L 11.03125 0 L 2.90625 0 L 2.90625 -37.546875 L 11.03125 -37.546875 L 11.03125 -21.8125 L 17.46875 -21.8125 L 17.46875 -37.546875 L 25.59375 -37.546875 L 25.59375 0 L 17.46875 0 L 17.46875 -14.734375 Z M 11.03125 -14.734375 "/></g></g><g style="fill:#ff3131;fill-opacity:1;"><g transform="translate(190.760671, 206.249986)"><path style="stroke:none" d="M 16.3125 -37.546875 L 24.4375 -37.546875 L 24.4375 -7.078125 C 24.4375 -1.972656 22.035156 0.578125 17.234375 0.578125 L 10.046875 0.578125 C 5.242188 0.578125 2.84375 -1.972656 2.84375 -7.078125 L 2.84375 -37.546875 L 10.96875 -37.546875 L 10.96875 -6.390625 C 10.96875 -6.078125 11.070312 -5.800781 11.28125 -5.5625 C 11.5 -5.332031 11.765625 -5.21875 12.078125 -5.21875 L 15.203125 -5.21875 C 15.515625 -5.21875 15.773438 -5.332031 15.984375 -5.5625 C 16.203125 -5.800781 16.3125 -6.078125 16.3125 -6.390625 Z M 16.3125 -37.546875 "/></g></g><g style="fill:#ff3131;fill-opacity:1;"><g transform="translate(217.855815, 206.249986)"><path style="stroke:none" d="M 24.4375 0 L 16.3125 0 L 16.3125 -31.15625 C 16.3125 -31.46875 16.203125 -31.738281 15.984375 -31.96875 C 15.773438 -32.207031 15.515625 -32.328125 15.203125 -32.328125 L 12.078125 -32.328125 C 11.765625 -32.328125 11.5 -32.207031 11.28125 -31.96875 C 11.070312 -31.738281 10.96875 -31.46875 10.96875 -31.15625 L 10.96875 0 L 2.84375 0 L 2.84375 -30.46875 C 2.84375 -35.570312 5.242188 -38.125 10.046875 -38.125 L 17.234375 -38.125 C 22.035156 -38.125 24.4375 -35.570312 24.4375 -30.46875 Z M 24.4375 0 "/></g></g></g></svg>